HIERARCHY
ROOT Hips
{
    OFFSET   0.000000   0.000000   0.000000
    CHANNELS 6 Xposition Yposition Zposition Zrotation Xrotation Yrotation
    JOINT Chest
    {
        OFFSET   0.000000   8.007230   0.000000
        CHANNELS 3 Zrotation Xrotation Yrotation
        JOINT Chest2
        {
            OFFSET   0.000000  22.077100   0.000000
            CHANNELS 3 Zrotation Xrotation Yrotation
            JOINT Neck
            {
                OFFSET   0.000000  23.255100   0.000000
                CHANNELS 3 Zrotation Xrotation Yrotation
                JOINT Head
                {
                    OFFSET   0.000000  14.370100   1.956600
                    CHANNELS 3 Zrotation Xrotation Yrotation
                    End Site
                    {
                        OFFSET   0.000000  19.566000   0.000000
                    }
                }
            }
            JOINT LeftCollar
            {
                OFFSET   3.911900  19.017000  -0.467063
                CHANNELS 3 Zrotation Xrotation Yrotation
                JOINT LeftShoulder
                {
                    OFFSET  10.383700   0.000000   0.000000
                    CHANNELS 3 Zrotation Xrotation Yrotation
                    JOINT LeftElbow
                    {
                        OFFSET  26.662100   0.001193   0.000980
                        CHANNELS 3 Zrotation Xrotation Yrotation
                        JOINT LeftWrist
                        {
                            OFFSET  28.869000  -0.000059  -0.000082
                            CHANNELS 3 Zrotation Xrotation Yrotation
                            JOINT LeftFinger0
                            {
                                OFFSET   2.044650  -2.323450   3.252850
                                CHANNELS 3 Zrotation Xrotation Yrotation
                                JOINT LeftFinger01
                                {
                                    OFFSET   3.088130   0.000000   0.000000
                                    CHANNELS 3 Zrotation Xrotation Yrotation
                                    JOINT LeftFinger02
                                    {
                                        OFFSET   2.639460   0.000000   0.000000
                                        CHANNELS 3 Zrotation Xrotation Yrotation
                                        End Site
                                        {
                                            OFFSET   2.582190   0.000000   0.000000
                                        }
                                    }
                                }
                            }
                            JOINT LeftFinger1
                            {
                                OFFSET   8.364480   0.000000   3.252850
                                CHANNELS 3 Zrotation Xrotation Yrotation
                                JOINT LeftFinger11
                                {
                                    OFFSET   4.646930   0.000000   0.000000
                                    CHANNELS 3 Zrotation Xrotation Yrotation
                                    JOINT LeftFinger12
                                    {
                                        OFFSET   2.323470   0.000000   0.000000
                                        CHANNELS 3 Zrotation Xrotation Yrotation
                                        End Site
                                        {
                                            OFFSET   2.273050   0.000000   0.000000
                                        }
                                    }
                                }
                            }
                            JOINT LeftFinger2
                            {
                                OFFSET   8.364490   0.000016   1.078090
                                CHANNELS 3 Zrotation Xrotation Yrotation
                                JOINT LeftFinger21
                                {
                                    OFFSET   5.111610   0.000000   0.000000
                                    CHANNELS 3 Zrotation Xrotation Yrotation
                                    JOINT LeftFinger22
                                    {
                                        OFFSET   2.788150   0.000016   0.000000
                                        CHANNELS 3 Zrotation Xrotation Yrotation
                                        End Site
                                        {
                                            OFFSET   2.727660   0.000000   0.000000
                                        }
                                    }
                                }
                            }
                            JOINT LeftFinger3
                            {
                                OFFSET   7.899780   0.000015  -1.078090
                                CHANNELS 3 Zrotation Xrotation Yrotation
                                JOINT LeftFinger31
                                {
                                    OFFSET   4.646930   0.000000   0.000000
                                    CHANNELS 3 Zrotation Xrotation Yrotation
                                    JOINT LeftFinger32
                                    {
                                        OFFSET   2.323470   0.000000   0.000000
                                        CHANNELS 3 Zrotation Xrotation Yrotation
                                        End Site
                                        {
                                            OFFSET   2.273050   0.000000   0.000000
                                        }
                                    }
                                }
                            }
                            JOINT LeftFinger4
                            {
                                OFFSET   7.435090   0.000000  -3.252850
                                CHANNELS 3 Zrotation Xrotation Yrotation
                                JOINT LeftFinger41
                                {
                                    OFFSET   3.717550   0.000000   0.000000
                                    CHANNELS 3 Zrotation Xrotation Yrotation
                                    JOINT LeftFinger42
                                    {
                                        OFFSET   1.858770   0.000000   0.000000
                                        CHANNELS 3 Zrotation Xrotation Yrotation
                                        End Site
                                        {
                                            OFFSET   1.818440   0.000000   0.000000
                                        }
                                    }
                                }
                            }
                        }
                    }
                }
            }
            JOINT RightCollar
            {
                OFFSET  -3.911910  19.017000  -0.467062
                CHANNELS 3 Zrotation Xrotation Yrotation
                JOINT RightShoulder
                {
                    OFFSET -10.383700   0.000014   0.000000
                    CHANNELS 3 Zrotation Xrotation Yrotation
                    JOINT RightElbow
                    {
                        OFFSET -26.662100   0.001225   0.001091
                        CHANNELS 3 Zrotation Xrotation Yrotation
                        JOINT RightWrist
                        {
                            OFFSET -28.869000  -0.000020  -0.000085
                            CHANNELS 3 Zrotation Xrotation Yrotation
                            JOINT RightFinger0
                            {
                                OFFSET  -2.044650  -2.323490   3.252850
                                CHANNELS 3 Zrotation Xrotation Yrotation
                                JOINT RightFinger01
                                {
                                    OFFSET  -3.088130   0.000000   0.000000
                                    CHANNELS 3 Zrotation Xrotation Yrotation
                                    JOINT RightFinger02
                                    {
                                        OFFSET  -2.639460   0.000000   0.000000
                                        CHANNELS 3 Zrotation Xrotation Yrotation
                                        End Site
                                        {
                                            OFFSET  -2.582190   0.000000   0.000000
                                        }
                                    }
                                }
                            }
                            JOINT RightFinger1
                            {
                                OFFSET  -8.364480   0.000000   3.252850
                                CHANNELS 3 Zrotation Xrotation Yrotation
                                JOINT RightFinger11
                                {
                                    OFFSET  -4.646930   0.000000   0.000000
                                    CHANNELS 3 Zrotation Xrotation Yrotation
                                    JOINT RightFinger12
                                    {
                                        OFFSET  -2.323470   0.000000   0.000000
                                        CHANNELS 3 Zrotation Xrotation Yrotation
                                        End Site
                                        {
                                            OFFSET  -2.273050   0.000000   0.000000
                                        }
                                    }
                                }
                            }
                            JOINT RightFinger2
                            {
                                OFFSET  -8.364480   0.000000   1.078090
                                CHANNELS 3 Zrotation Xrotation Yrotation
                                JOINT RightFinger21
                                {
                                    OFFSET  -5.111620   0.000000   0.000000
                                    CHANNELS 3 Zrotation Xrotation Yrotation
                                    JOINT RightFinger22
                                    {
                                        OFFSET  -2.788160   0.000000   0.000000
                                        CHANNELS 3 Zrotation Xrotation Yrotation
                                        End Site
                                        {
                                            OFFSET  -2.727660   0.000000   0.000000
                                        }
                                    }
                                }
                            }
                            JOINT RightFinger3
                            {
                                OFFSET  -7.899780   0.000000  -1.078090
                                CHANNELS 3 Zrotation Xrotation Yrotation
                                JOINT RightFinger31
                                {
                                    OFFSET  -4.646930   0.000000   0.000000
                                    CHANNELS 3 Zrotation Xrotation Yrotation
                                    JOINT RightFinger32
                                    {
                                        OFFSET  -2.323470   0.000000   0.000000
                                        CHANNELS 3 Zrotation Xrotation Yrotation
                                        End Site
                                        {
                                            OFFSET  -2.273050   0.000000   0.000000
                                        }
                                    }
                                }
                            }
                            JOINT RightFinger4
                            {
                                OFFSET  -7.435090   0.000000  -3.252850
                                CHANNELS 3 Zrotation Xrotation Yrotation
                                JOINT RightFinger41
                                {
                                    OFFSET  -3.717550   0.000000   0.000000
                                    CHANNELS 3 Zrotation Xrotation Yrotation
                                    JOINT RightFinger42
                                    {
                                        OFFSET  -1.858760   0.000000   0.000000
                                        CHANNELS 3 Zrotation Xrotation Yrotation
                                        End Site
                                        {
                                            OFFSET  -1.818440   0.000000   0.000000
                                        }
                                    }
                                }
                            }
                        }
                    }
                }
            }
        }
    }
    JOINT LeftHip
    {
        OFFSET   9.783030   0.000000   0.000000
        CHANNELS 3 Zrotation Xrotation Yrotation
        JOINT LeftKnee
        {
            OFFSET   0.000063 -41.789100   0.000608
            CHANNELS 3 Zrotation Xrotation Yrotation
            JOINT LeftAnkle
            {
                OFFSET   0.000048 -41.133200  -0.000184
                CHANNELS 3 Zrotation Xrotation Yrotation
                JOINT LeftToe
                {
                    OFFSET   0.000000  -6.358960  14.674500
                    CHANNELS 3 Zrotation Xrotation Yrotation
                    End Site
                    {
                        OFFSET   0.000000   0.000000   3.913200
                    }
                }
            }
        }
    }
    JOINT RightHip
    {
        OFFSET  -9.783030   0.000000   0.000000
        CHANNELS 3 Zrotation Xrotation Yrotation
        JOINT RightKnee
        {
            OFFSET   0.000071 -41.789100   0.001239
            CHANNELS 3 Zrotation Xrotation Yrotation
            JOINT RightAnkle
            {
                OFFSET   0.000037 -41.133200  -0.000166
                CHANNELS 3 Zrotation Xrotation Yrotation
                JOINT RightToe
                {
                    OFFSET   0.000000  -6.358960  14.674500
                    CHANNELS 3 Zrotation Xrotation Yrotation
                    End Site
                    {
                        OFFSET   0.000000   0.000000   3.913200
                    }
                }
            }
        }
    }
}
MOTION
Frames: 4
Frame Time:   0.016667
  1.142120  89.580700   0.272151  -2.982370  -7.425930  -4.294890   0.721458   4.287740   0.903618   1.380650   8.586070   1.760280   1.636620  -0.283895   0.003629   2.694680  -0.573909   1.954050  -5.615190  -0.407001   1.404510 -74.386500  19.899900  -3.887840  -1.168000  -2.514800 -16.160500  15.799700 -12.957100  10.817600  40.171100  34.673300 -62.597500 -32.250800   0.003838   0.002480 -11.126800   0.001523  -0.000933 -26.923500   5.671900 -11.012900 -22.476700  -0.001346   0.001537 -15.733700  -0.012867   0.000776 -27.591800   0.523266  -1.001130 -29.685500   0.001482   0.005394 -19.770500  -0.000668   0.003803 -27.231200   0.516960  -1.004400 -27.987300  -0.006658  -0.000489 -18.639500  -0.001832  -0.001253 -28.553400   0.539993  -0.992208 -42.837400  -0.009725  -0.003266 -28.529600   0.000345  -0.003699  10.322800   0.965719   4.289300  69.231700  14.196200  -1.257660  -3.675260   0.043923  16.109400 -15.460100  -2.097840  -2.652040 -33.036600  28.211500  59.591200  38.581200   0.001787  -0.001371  14.809700  -0.002117  -0.001001  33.535600   9.206920  13.557400  28.336500   0.002075  -0.000563  19.835600   0.013164  -0.000176  28.392600  -2.786140  -5.137310  36.424600   0.004640  -0.000556  24.258800  -0.000438  -0.009724  36.384800  -3.473570  -4.700530  54.050500   0.002166  -0.006855  36.148900  -0.002881  -0.003563  53.388000  -5.902620  -4.377400  80.421200  -0.003906  -0.003233  53.560600  -0.003301  -0.001153   1.851550  10.113200   4.522580   0.837479   0.270520   8.546280  -2.438790  -3.275200   2.129730   0.000000   0.000000  -0.000000   2.249230   8.575460  -5.737200  -0.840890   1.898560  -6.922490  -0.242433  -3.703930   1.265240  -0.000000   0.000000   0.000000
  1.142230  89.580700   0.259057  -2.982910  -7.433390  -4.294760   0.721260   4.294700   0.904986   1.379920   8.599970   1.763020   1.636700  -0.279305   0.003631   2.694490  -0.564908   1.938370  -5.615350  -0.398389   1.411440 -74.383700  19.916200  -3.901540  -1.167490  -2.516540 -16.151600  15.797000 -12.942300  10.816900  40.171000  34.674700 -62.597000 -32.252000   0.003845   0.002503 -11.127200   0.001502  -0.000924 -26.925300   5.669690 -11.008000 -22.477500  -0.001339   0.001549 -15.734300  -0.012866   0.000787 -27.591900   0.520598  -0.996063 -29.685500   0.001504   0.005428 -19.770500  -0.000661   0.003832 -27.232200   0.514351  -0.999302 -27.990500  -0.006703  -0.000484 -18.641600  -0.001821  -0.001247 -28.553500   0.537259  -0.987170 -42.837400  -0.009749  -0.003236 -28.529600   0.000329  -0.003679  10.329400   0.954053   4.290700  69.214900  14.267700  -1.229280  -3.676380   0.063950  16.103400 -15.447900  -2.063180  -2.656200 -33.054700  28.231800  59.577600  38.567600   0.001790  -0.001343  14.800000  -0.002118  -0.000998  33.512500   9.206230  13.575200  28.318200   0.002086  -0.000563  19.822800   0.013158  -0.000173  28.393700  -2.780250  -5.126940  36.394500   0.004636  -0.000541  24.238800  -0.000441  -0.009739  36.356100  -3.464080  -4.692670  54.050500   0.002165  -0.006879  36.138700  -0.002890  -0.003572  53.368300  -5.894430  -4.377400  80.391400  -0.003922  -0.003246  53.540700  -0.003312  -0.001141   1.859600  10.092700   4.522250   0.831769   0.315099   8.546050  -2.443830  -3.288010   2.128860   0.000000   0.000000  -0.000000   2.247430   8.566400  -5.731080  -0.839816   1.908980  -6.926820  -0.242363  -3.697310   1.266770   0.000000   0.000000   0.000000
  1.142430  89.580600   0.237428  -2.983920  -7.447110  -4.294690   0.720952   4.306340   0.907955   1.379040   8.623260   1.768880   1.636830  -0.269359   0.003640   2.694070  -0.545076   1.909210  -5.615620  -0.384819   1.421640 -74.388800  19.964500  -3.935810  -1.165280  -2.528360 -16.118500  15.794400 -12.927500  10.816300  40.169900  34.684000 -62.593200 -32.260800   0.003869   0.002540 -11.130400   0.001445  -0.000895 -26.934400   5.662970 -10.990700 -22.483400  -0.001321   0.001583 -15.738400  -0.012864   0.000815 -27.592200   0.510669  -0.977063 -29.685500   0.001562   0.005512 -19.770500  -0.000646   0.003900 -27.235700   0.504583  -0.980218 -28.003000  -0.006813  -0.000471 -18.650000  -0.001792  -0.001232 -28.553800   0.526997  -0.968349 -42.837400  -0.009803  -0.003158 -28.529600   0.000290  -0.003629  10.345300   0.920360   4.297100  69.186000  14.386400  -1.185320  -3.675720   0.102044  16.081000 -15.435700  -2.028420  -2.662420 -33.078300  28.254900  59.566600  38.554100   0.001794  -0.001315  14.790300  -0.002123  -0.000983  33.489300   9.205550  13.593100  28.299900   0.002101  -0.000563  19.809900   0.013148  -0.000169  28.394700  -2.774370  -5.116560  36.364500   0.004628  -0.000505  24.218800  -0.000449  -0.009775  36.327500  -3.454590  -4.684800  54.050500   0.002159  -0.006936  36.128500  -0.002913  -0.003598  53.348600  -5.886240  -4.377420  80.361700  -0.003960  -0.003278  53.520900  -0.003342  -0.001110   1.873130  10.072300   4.521770   0.826060   0.359678   8.545810  -2.453060  -3.300830   2.127990   0.000000   0.000000  -0.000000   2.245370   8.557370  -5.722460  -0.838485   1.920790  -6.933720  -0.242291  -3.685430   1.270140  -0.000000   0.000000   0.000000
  1.142650  89.580600   0.220353  -2.988910  -7.459880  -4.294870   0.721661   4.315580   0.911267   1.380210   8.641810   1.775370   1.636920  -0.257224   0.003663   2.693560  -0.520272   1.879410  -5.612430  -0.374900   1.427820 -74.422700  20.026600  -3.983030  -1.157840  -2.554770 -16.060600  15.796800 -12.927800  10.826700  40.163300  34.706700 -62.578500 -32.294000   0.003913   0.002566 -11.146500   0.001354  -0.000841 -26.959400   5.649340 -10.953300 -22.501200  -0.001293   0.001640 -15.750800  -0.012859   0.000855 -27.596400   0.489872  -0.937116 -29.704900   0.001652   0.005641 -19.783500  -0.000625   0.004001 -27.241600   0.484059  -0.940131 -28.027000  -0.006979  -0.000451 -18.666000  -0.001751  -0.001211 -28.547200   0.505268  -0.928931 -42.827000  -0.009881  -0.003038 -28.522700   0.000229  -0.003554  10.370400   0.863237   4.311570  69.162000  14.470100  -1.158060  -3.669590   0.143230  16.034700 -15.459300  -2.028360  -2.665150 -33.080300  28.250400  59.578200  38.563900   0.001784  -0.001321  14.796900  -0.002137  -0.000949  33.511300   9.206710  13.584600  28.317500   0.002105  -0.000562  19.822200   0.013142  -0.000169  28.396400  -2.787710  -5.140400  36.397800   0.004617  -0.000449  24.241000  -0.000464  -0.009825  36.370500  -3.475250  -4.703550  54.055200   0.002147  -0.007022  36.144000  -0.002949  -0.003643  53.372200  -5.896060  -4.377530  80.397500  -0.004016  -0.003324  53.544700  -0.003392  -0.001060   1.883790  10.084100   4.521760   0.822799   0.341090   8.545870  -2.461600  -3.285230   2.129480   0.000000   0.000000   0.000000   2.249450   8.558720  -5.719810  -0.837578   1.921700  -6.938670  -0.245231  -3.673520   1.275270   0.000000   0.000000   0.000000
